<?xml version="1.0" encoding="UTF-8" standalone="no"?>
<!-- Created with Inkscape (http://www.inkscape.org/) -->
<svg
   xmlns:dc="http://purl.org/dc/elements/1.1/"
   xmlns:cc="http://creativecommons.org/ns#"
   xmlns:rdf="http://www.w3.org/1999/02/22-rdf-syntax-ns#"
   xmlns:svg="http://www.w3.org/2000/svg"
   xmlns="http://www.w3.org/2000/svg"
   xmlns:sodipodi="http://sodipodi.sourceforge.net/DTD/sodipodi-0.dtd"
   xmlns:inkscape="http://www.inkscape.org/namespaces/inkscape"
   width="744.09448819"
   height="1052.3622047"
   id="svg2"
   sodipodi:version="0.32"
   inkscape:version="0.46"
   sodipodi:docname="cloud1.svg"
   inkscape:output_extension="org.inkscape.output.svg.inkscape"
   inkscape:export-filename="/home/goose/workspace/pyWeek08/trunk/data/cloud1.png"
   inkscape:export-xdpi="74.541542"
   inkscape:export-ydpi="74.541542">
  <sodipodi:namedview
     id="base"
     pagecolor="#ffffff"
     bordercolor="#666666"
     borderopacity="1.0"
     gridtolerance="10000"
     guidetolerance="10"
     objecttolerance="10"
     inkscape:pageopacity="0.0"
     inkscape:pageshadow="2"
     inkscape:zoom="3.2151088"
     inkscape:cx="326.20683"
     inkscape:cy="710.50314"
     inkscape:document-units="px"
     inkscape:current-layer="layer1"
     showgrid="false"
     inkscape:window-width="1280"
     inkscape:window-height="752"
     inkscape:window-x="0"
     inkscape:window-y="27" />
  <defs
     id="defs4">
    <inkscape:path-effect
       effect="bend_path"
       id="path-effect3487"
       bendpath="M 139.656,355.718 L 496.875,355.718 "
       prop_scale="1" />
    <inkscape:path-effect
       effect="bend_path"
       id="path-effect3485"
       bendpath="M 177.0996,359.65943 L 471.2557,351.77657"
       prop_scale="1"
       bendpath-nodetypes="cc" />
    <inkscape:perspective
       id="perspective10"
       inkscape:persp3d-origin="372.04724 : 350.78739 : 1"
       inkscape:vp_z="744.09448 : 526.18109 : 1"
       inkscape:vp_y="0 : 1000 : 0"
       inkscape:vp_x="0 : 526.18109 : 1"
       sodipodi:type="inkscape:persp3d" />
  </defs>
  <metadata
     id="metadata7">
    <rdf:RDF>
      <cc:Work
         rdf:about="">
        <dc:format>image/svg+xml</dc:format>
        <dc:type
           rdf:resource="http://purl.org/dc/dcmitype/StillImage" />
      </cc:Work>
    </rdf:RDF>
  </metadata>
  <g
     id="layer1"
     inkscape:groupmode="layer"
     inkscape:label="Layer 1">
    <path
       style="fill:#000000;fill-opacity:1;fill-rule:evenodd;stroke:none;stroke-width:0.50000000000000000;stroke-linecap:butt;stroke-linejoin:miter;stroke-miterlimit:4;stroke-dasharray:none;stroke-opacity:1"
       d="M 343.09375 264.0625 C 335.59336 264.15735 328.03288 266.72813 321.90625 270.875 C 316.73611 267.26816 310.23024 264.92175 303.75 264.78125 C 296.91635 264.63309 290.08466 267.01192 285.53125 273 C 285.49784 273.04001 285.46656 273.08173 285.4375 273.125 C 283.80303 275.90395 281.45892 278.63756 278.75 280.46875 C 276.05887 282.28792 273.05687 283.22843 269.84375 282.75 L 269.78125 282.75 C 260.95894 281.07022 253.25616 284.0253 246.21875 288.09375 C 239.16431 292.17205 232.62792 297.3523 225.9375 300.5625 C 225.87195 300.59941 225.80928 300.64119 225.75 300.6875 C 218.32939 305.62307 216.29107 313.64337 214.4375 321.21875 C 212.58393 328.79414 210.87538 335.95284 204.8125 340.46875 C 204.75769 340.5069 204.70549 340.54865 204.65625 340.59375 C 193.36713 351.73904 189.47102 370.24248 198.0625 384.25 C 198.10459 384.31864 198.11355 384.40034 198.15625 384.46875 C 200.72056 390.60136 203.04858 397.77365 206.65625 404.09375 C 210.3049 410.48566 215.33862 416.05883 223.15625 418.375 C 223.20774 418.38819 223.2599 418.39861 223.3125 418.40625 C 239.98723 421.77019 256.75454 417.73431 272.5 413.625 C 272.99136 413.48862 273.37981 413.11194 273.53125 412.625 C 275.04205 407.94211 278.63347 403.32386 282.9375 400.71875 C 287.24152 398.11365 292.09075 397.44339 296.84375 400.3125 C 298.62608 401.99121 300.67698 402.91283 302.75 403.1875 C 304.94155 403.47789 307.12609 403.17179 309.28125 402.65625 C 313.59155 401.62517 317.8467 399.85638 321.40625 399.78125 C 321.54388 399.77916 321.68059 399.75812 321.8125 399.71875 C 329.56624 397.47494 338.21001 399.77352 346.6875 398.84375 C 346.81601 398.82881 346.94207 398.79729 347.0625 398.75 C 353.46631 396.38327 360.27297 393.28951 366.96875 391.78125 C 373.66452 390.273 380.13107 390.30496 386.25 394.03125 C 386.27058 394.04216 386.29143 394.05257 386.3125 394.0625 C 401.79487 402.55849 421.77102 398.29572 434.21875 386.53125 C 450.6851 379.61006 458.12446 361.48996 458.90625 344.96875 C 460.04092 326.35735 452.17258 309.22897 449.1875 291.90625 C 449.18105 291.84315 449.17062 291.78053 449.15625 291.71875 C 444.28156 275.06773 426.78414 262.36081 409.15625 266.0625 C 400.8807 264.30445 393.17766 266.77622 385.78125 269.1875 C 378.38678 271.59814 371.26832 273.877 363.9375 272.4375 C 358.30782 266.51208 350.73947 263.96581 343.09375 264.0625 z M 343.125 267.0625 C 350.30125 266.97174 357.18549 269.29496 362.21875 274.875 C 362.42426 275.10846 362.69729 275.27227 363 275.34375 C 371.40133 277.1149 379.19492 274.50513 386.6875 272.0625 C 394.18007 269.61987 401.36694 267.34435 408.8125 269.03125 C 409.02856 269.07968 409.25268 269.07968 409.46875 269.03125 C 425.43602 265.48473 441.80848 277.28434 446.28125 292.5625 C 449.37473 310.35302 456.97888 327.18749 455.90625 344.78125 C 455.90613 344.79168 455.90614 344.80208 455.90625 344.8125 C 455.15802 360.62424 448.01031 377.63432 432.8125 383.875 C 432.64903 383.95198 432.50082 384.05784 432.375 384.1875 C 420.87081 395.21302 402.02689 399.22733 387.8125 391.46875 C 387.79166 391.45608 387.77084 391.45011 387.75 391.4375 C 380.84314 387.25854 373.41375 387.24416 366.3125 388.84375 C 359.27028 390.43005 352.44199 393.54185 346.25 395.84375 C 338.71609 396.63549 329.97869 394.4199 321.34375 396.78125 C 321.33332 396.78148 321.32291 396.78101 321.3125 396.78125 C 316.89166 396.88307 312.5377 398.7753 308.59375 399.71875 C 306.61712 400.1916 304.78665 400.43478 303.15625 400.21875 C 301.52584 400.00273 300.09721 399.39528 298.6875 397.96875 C 298.59496 397.87184 298.48986 397.78775 298.375 397.71875 C 292.63709 394.25513 286.37917 395.12737 281.375 398.15625 C 276.62432 401.0317 272.90016 405.78973 271.03125 410.90625 C 255.59227 414.92162 239.58287 418.60002 224.03125 415.5 C 223.9887 415.4874 223.94861 415.48157 223.90625 415.46875 C 217.06791 413.39991 212.69606 408.60725 209.28125 402.625 C 205.84528 396.60571 203.48239 389.44133 200.8125 383.09375 C 200.77704 383.01747 200.73523 382.94428 200.6875 382.875 C 192.8229 370.27352 196.34427 353.16154 206.625 342.875 C 206.68756 342.82841 206.71951 342.7658 206.78125 342.71875 C 213.68436 337.45876 215.5127 329.42085 217.34375 321.9375 C 219.19118 314.38722 221.02298 307.43312 227.40625 303.1875 C 234.4678 299.7631 240.99439 294.57497 247.71875 290.6875 C 254.5022 286.76587 261.37498 284.16298 269.28125 285.6875 C 269.2915 285.69807 269.30193 285.70849 269.3125 285.71875 C 273.41266 286.35302 277.26252 285.08375 280.4375 282.9375 C 283.56074 280.82622 286.08043 277.87303 287.90625 274.8125 C 291.825 269.65903 297.57239 267.64866 303.6875 267.78125 C 309.8026 267.91384 316.22584 270.27834 321 273.84375 C 321.51617 274.22865 322.22041 274.24122 322.75 273.875 C 328.51036 269.7355 335.94874 267.15326 343.125 267.0625 z M 349.78125 273.78125 C 349.13126 273.76699 348.49444 273.78534 347.84375 273.8125 C 343.93964 273.97545 340.06587 274.84252 336.1875 275.65625 C 331.01634 276.74123 325.8275 277.74589 320.5 276.96875 L 320.46875 276.96875 L 320.4375 276.96875 C 314.65978 277.03018 308.2097 275.7341 302.03125 275.71875 C 295.8528 275.7034 289.9437 276.96731 285.375 282.21875 C 283.0119 284.68317 282.1343 286.69249 282.3125 288.28125 C 282.4907 289.87001 283.74628 290.95277 285.4375 291.46875 C 288.81994 292.50071 294.05988 291.5024 297.09375 288.46875 L 297.125 288.4375 C 300.83468 282.82272 305.92122 281.62663 311.5 281.90625 C 317.07878 282.18587 323.09072 283.98787 328.5 284.34375 L 328.53125 283.84375 C 323.20813 283.49354 317.19807 281.69028 311.53125 281.40625 C 305.87776 281.12289 300.52581 282.39483 296.71875 288.125 C 296.70978 288.1385 296.69645 288.1427 296.6875 288.15625 C 293.81636 290.99769 288.73858 291.92822 285.59375 290.96875 C 284.01573 290.48731 282.9646 289.57482 282.8125 288.21875 C 282.6604 286.86268 283.40737 284.97298 285.71875 282.5625 L 285.75 282.5625 C 290.20545 277.44123 295.92226 276.20357 302.03125 276.21875 C 308.14024 276.23393 314.61282 277.53102 320.46875 277.46875 L 320.46875 277.4375 C 325.88074 278.21333 331.12509 277.20683 336.28125 276.125 C 341.45722 275.03901 346.54736 273.90548 351.6875 274.40625 L 351.75 273.90625 C 351.09439 273.84238 350.43124 273.79551 349.78125 273.78125 z M 401.34375 274.4375 C 399.16256 274.46934 396.90055 275.15035 394.6875 276.625 C 394.675 276.63333 394.66875 276.64787 394.65625 276.65625 C 388.30129 279.58382 382.81115 285.01274 380.59375 291.75 L 381.0625 291.90625 C 383.23255 285.31287 388.61874 279.9643 394.875 277.09375 L 394.90625 277.0625 L 394.9375 277.0625 C 400.66678 273.21998 406.68356 275.00868 410.46875 279.125 C 414.25394 283.24132 415.74196 289.6622 412.3125 295.125 L 412.28125 295.1875 L 412.28125 295.21875 C 411.26185 301.0743 408.76505 307.47215 404.875 312.40625 C 400.98495 317.34035 395.71005 320.81559 389.09375 320.875 C 376.99409 321.68197 363.52401 319.87687 353.21875 327.84375 L 353.1875 327.84375 C 345.13399 335.59826 334.88035 341.90919 323.34375 341.40625 C 323.33353 341.40458 323.32272 341.40792 323.3125 341.40625 C 309.63035 339.17539 295.74445 339.21945 281.96875 340.09375 C 274.76366 340.50572 270.69067 345.2379 268.125 351.15625 C 265.55933 357.0746 264.4459 364.20209 263.03125 369.59375 C 260.26128 379.98407 256.69431 392.60612 247.5 398.40625 C 243.80724 398.80889 236.96116 398.88502 231.75 397.46875 C 229.13325 396.75758 226.94551 395.66232 225.78125 394.09375 C 224.62743 392.53925 224.42918 390.50145 225.78125 387.71875 C 234.93327 383.55776 240.0152 374.65071 243.3125 365.5625 L 242.84375 365.40625 C 239.55438 374.4726 234.50405 383.28547 225.46875 387.34375 L 225.375 387.375 L 225.34375 387.4375 C 223.89792 390.36623 224.10032 392.68891 225.375 394.40625 C 226.64968 396.12359 228.95204 397.2423 231.625 397.96875 C 236.97091 399.42164 243.88545 399.31976 247.625 398.90625 L 247.6875 398.90625 L 247.75 398.875 C 257.19957 392.94268 260.72507 380.1277 263.5 369.71875 C 264.92552 364.28566 266.06538 357.17608 268.59375 351.34375 C 271.12212 345.51142 275.00026 340.99397 282 340.59375 C 295.7662 339.72005 309.61254 339.64797 323.25 341.875 L 323.28125 341.90625 C 335.01677 342.43038 345.41739 336.02632 353.53125 328.21875 L 353.5625 328.21875 C 363.66027 320.4293 376.93767 322.18128 389.09375 321.375 C 389.10448 321.3749 389.11427 321.37511 389.125 321.375 C 395.89877 321.30306 401.3005 317.72826 405.25 312.71875 C 409.20576 307.70131 411.74883 301.24289 412.78125 295.3125 L 412.75 295.3125 C 416.23713 289.66361 414.70897 283.01859 410.8125 278.78125 C 408.8541 276.65153 406.31543 275.12371 403.5 274.625 C 402.79911 274.50085 402.07081 274.42689 401.34375 274.4375 z M 422.65625 277.34375 L 422.21875 277.59375 C 428.43281 288.54404 436.42545 298.91753 439.71875 311.09375 C 439.83518 322.44163 437.56037 334.86176 431.5 344.46875 C 431.49507 344.47656 431.50493 344.49219 431.5 344.5 C 428.55725 348.462 422.00768 351.93621 416.28125 352.5 C 413.41405 352.78228 410.7523 352.3386 408.84375 350.90625 C 406.9352 349.4739 405.73871 347.04878 405.78125 343.25 C 405.40953 338.35142 406.67155 332.88252 409.3125 328.4375 C 411.94312 324.00987 415.90509 320.57181 421 319.625 C 421.02199 319.6269 421.04064 319.62295 421.0625 319.625 C 423.87006 319.88841 425.59914 321.39199 426.53125 323.53125 C 427.47062 325.68717 427.57374 328.51183 427 331.34375 C 426.42626 334.17567 425.19472 337.00258 423.5 339.15625 C 421.80528 341.30992 419.64915 342.78771 417.28125 342.96875 L 415.46875 342.78125 L 415.40625 343.28125 L 417.28125 343.46875 L 417.3125 343.46875 L 417.34375 343.46875 C 419.89342 343.27381 422.12235 341.69603 423.875 339.46875 C 425.62765 337.24147 426.91131 334.34322 427.5 331.4375 C 428.08869 328.53178 427.99784 325.63388 427 323.34375 C 426.00216 321.05362 424.06768 319.38495 421.0625 319.125 L 421.03125 319.125 L 420.96875 319.125 C 415.67735 320.08644 411.57173 323.64858 408.875 328.1875 C 406.18375 332.71719 404.9085 338.24677 405.28125 343.25 C 405.28112 343.26131 405.28135 343.26997 405.28125 343.28125 C 405.24519 347.17089 406.49158 349.78175 408.53125 351.3125 C 410.57684 352.84769 413.36439 353.29025 416.3125 353 C 422.20872 352.4195 428.84343 348.92035 431.90625 344.78125 L 431.90625 344.75 C 438.06246 335.00564 440.34487 322.47535 440.21875 311.03125 L 440.21875 311 L 440.21875 310.96875 C 436.89097 298.66507 428.84622 288.25159 422.65625 277.34375 z M 363.5 277.875 C 358.92507 277.93819 354.29837 278.67771 351.6875 279.0625 L 351.75 279.5625 C 355.23908 279.04828 362.30918 277.91185 367.9375 278.5625 C 370.75166 278.88783 373.18936 279.67078 374.65625 281.125 C 376.11236 282.56853 376.68671 284.69174 375.71875 287.90625 C 375.71483 287.91927 375.69147 287.92444 375.6875 287.9375 C 373.6823 290.58895 371.35901 291.73918 368.8125 292.03125 C 366.25309 292.3248 363.4554 291.73329 360.5625 290.875 C 354.77671 289.15841 348.64795 286.31653 343.25 287.5625 L 343.21875 287.59375 L 343.1875 287.59375 C 333.11813 292.30634 324.58874 300.81593 313.5 302.96875 C 313.47936 302.96734 313.45814 302.97017 313.4375 302.96875 C 299.4285 302.0061 285.23364 299.82112 271.875 295.28125 L 271.71875 295.75 C 285.15303 300.31557 299.41107 302.50633 313.46875 303.46875 L 313.5 303.46875 L 313.53125 303.46875 C 324.84374 301.2977 333.43094 292.73107 343.40625 288.0625 C 348.54633 286.9079 354.62514 289.61928 360.4375 291.34375 C 363.35495 292.20933 366.20045 292.83801 368.875 292.53125 C 371.54955 292.22449 374.04222 290.96173 376.125 288.1875 L 376.15625 288.15625 L 376.15625 288.125 C 377.18825 284.75909 376.59938 282.36681 375 280.78125 C 373.40062 279.19569 370.83875 278.39428 367.96875 278.0625 C 366.53375 277.89661 365.02498 277.85394 363.5 277.875 z M 400.09375 286.21875 C 397.17664 295.61188 390.88811 306.97825 380.9375 310 C 380.92726 310.00108 380.91649 309.99893 380.90625 310 C 375.34377 310.58081 369.55478 309.52033 363.8125 309.125 C 358.06875 308.72957 352.38081 309.00134 347.09375 312.25 C 347.08536 312.25515 347.07089 312.24483 347.0625 312.25 C 334.15927 316.28175 323.66396 325.51369 310.71875 328.78125 L 310.6875 328.78125 C 296.08156 333.04233 281.08626 328.63332 267.21875 323.71875 L 267.1875 323.6875 L 267.15625 323.6875 C 254.4225 321.98476 240.98468 329.26583 233.9375 339.8125 L 233.9375 339.84375 C 228.6053 349.22952 221.39043 357.63251 215.96875 367.21875 L 216.40625 367.46875 C 221.79592 357.93911 229.01054 349.5363 234.375 340.09375 C 241.30646 329.72027 254.54785 322.54782 267.03125 324.1875 C 267.05191 324.19021 267.0731 324.18474 267.09375 324.1875 C 280.96395 329.10067 296.07987 333.5884 310.84375 329.28125 C 323.95205 325.97252 334.46883 316.70388 347.25 312.71875 L 347.28125 312.71875 L 347.3125 312.6875 C 352.48042 309.502 358.06598 309.23153 363.78125 309.625 C 369.49652 310.01847 375.3309 311.09814 381 310.5 L 381.03125 310.46875 C 391.27362 307.37649 397.61615 295.86227 400.5625 286.375 L 400.09375 286.21875 z M 419.84375 292.125 C 419.75345 292.10702 419.64482 292.12025 419.5625 292.15625 C 419.39786 292.22824 419.29232 292.35676 419.1875 292.53125 C 419.08268 292.70574 418.98359 292.92343 418.875 293.21875 L 419.34375 293.375 C 419.44561 293.098 419.54597 292.91281 419.625 292.78125 C 419.68978 292.67342 419.73438 292.63883 419.75 292.625 C 419.77654 292.66087 419.80145 292.72472 419.84375 292.84375 C 420.04281 293.4039 420.18037 294.70505 420.25 296.15625 C 420.31963 297.60745 420.32239 299.22674 420.28125 300.5625 C 420.26068 301.23038 420.22739 301.82392 420.1875 302.28125 C 420.14761 302.73858 420.08651 303.09538 420.0625 303.15625 L 420.0625 303.1875 L 420.0625 303.25 C 419.93154 309.07315 416.91596 313.05751 413.0625 316.59375 C 409.21979 320.12013 404.55708 323.15691 401.125 327.03125 C 401.1154 327.04209 401.10333 327.05165 401.09375 327.0625 C 396.53408 330.47809 391.08183 329.35457 385.5625 328.4375 C 382.79562 327.97777 380.01671 327.56123 377.34375 327.84375 C 374.67079 328.12627 372.08534 329.11964 369.78125 331.40625 L 369.75 331.4375 C 366.71586 336.3405 362.33715 340.38006 358.25 344.625 C 354.16285 348.86994 350.36297 353.3369 348.53125 359.15625 L 349 359.3125 C 350.79425 353.61221 354.55223 349.19874 358.625 344.96875 C 362.68758 340.74933 367.07458 336.71447 370.15625 331.75 C 370.16398 331.73755 370.17979 331.73121 370.1875 331.71875 C 372.40172 329.53656 374.83254 328.61578 377.40625 328.34375 C 379.99325 328.07031 382.70874 328.47891 385.46875 328.9375 C 390.98878 329.85468 396.64461 331.03289 401.40625 327.4375 L 401.4375 327.40625 L 401.46875 327.40625 C 404.83885 323.58946 409.50933 320.54488 413.40625 316.96875 C 417.28078 313.41318 420.36331 309.27868 420.53125 303.34375 C 420.53222 303.30944 420.56173 303.28443 420.5625 303.25 C 420.63167 303.03545 420.65032 302.76999 420.6875 302.34375 C 420.72864 301.8721 420.76048 301.26834 420.78125 300.59375 C 420.8228 299.24458 420.82045 297.59325 420.75 296.125 C 420.67955 294.65675 420.56169 293.38874 420.3125 292.6875 C 420.2502 292.51219 420.1755 292.36563 420.0625 292.25 C 420.006 292.19218 419.93405 292.14298 419.84375 292.125 z M 252.90625 307.90625 C 252.37733 307.9132 251.84075 307.93376 251.3125 307.96875 C 244.25269 308.43632 237.29401 311.3691 232.25 316 L 232.21875 316.03125 L 232.21875 316.0625 C 226.26271 326.4483 222.27284 337.85984 214.875 347.3125 C 214.86601 347.32399 214.85275 347.33227 214.84375 347.34375 C 210.4406 351.67707 207.1007 357.29377 206.375 362.8125 C 205.6508 368.31986 207.58887 373.73657 213.625 377.625 C 213.65185 377.6423 213.66048 377.67026 213.6875 377.6875 C 215.97568 380.44065 218.3067 381.42839 220.46875 381.09375 C 222.6501 380.75612 224.61565 379.15068 226.3125 376.96875 C 229.68307 372.63462 231.98084 365.96118 232.40625 361.8125 C 232.41123 361.79999 232.43247 361.79376 232.4375 361.78125 C 232.43929 361.76344 232.43578 361.73647 232.4375 361.71875 C 234.07976 357.69134 238.49145 353.83901 243.375 351.8125 C 248.25334 349.78815 253.56828 349.58266 257.15625 352.6875 C 258.21957 358.80561 256.14267 364.2453 253 369.375 C 249.84633 374.52265 245.63802 379.31593 242.5 384.125 L 242.90625 384.40625 C 246.01532 379.64155 250.25259 374.82365 253.4375 369.625 C 256.62241 364.42635 258.7734 358.83367 257.65625 352.53125 L 257.625 352.4375 L 257.5625 352.375 C 253.78195 349.02024 248.18338 349.25765 243.15625 351.34375 C 238.12912 353.42985 233.62661 357.37972 231.9375 361.625 L 231.9375 361.65625 L 231.9375 361.6875 C 231.5482 365.69583 229.21391 372.40303 225.90625 376.65625 C 224.25242 378.78286 222.36283 380.28607 220.375 380.59375 C 218.38717 380.90143 216.27149 380.04007 214.03125 377.3125 L 214 377.28125 L 213.96875 377.28125 C 208.00593 373.47679 206.16785 368.25264 206.875 362.875 C 207.58215 357.49736 210.8638 351.96254 215.21875 347.6875 L 215.25 347.65625 C 222.72359 338.12242 226.67331 326.67811 232.59375 316.34375 C 232.60448 316.3339 232.61426 316.32233 232.625 316.3125 C 240.55091 309.05943 253.31979 306.10449 263.53125 310.40625 L 263.5625 310.40625 C 267.08328 311.3973 271.29848 313.26501 275.4375 314.46875 C 279.57652 315.67249 283.68971 316.24104 287.03125 314.53125 L 286.78125 314.0625 C 283.62794 315.67598 279.6554 315.19032 275.5625 314 C 271.47926 312.81249 267.32236 310.94628 263.75 309.9375 C 263.74085 309.93365 263.7279 309.94134 263.71875 309.9375 C 260.30015 308.50223 256.60868 307.85761 252.90625 307.90625 z M 391.25 333.40625 C 390.06214 343.42882 390.78007 353.74894 385.90625 362.78125 L 385.875 362.84375 L 385.875 362.90625 C 386.2649 366.50126 387.61185 368.68435 389.5625 369.78125 C 391.51315 370.87815 394.02934 370.88769 396.6875 370.40625 C 402.00382 369.44337 408.02771 366.40719 411.875 365.125 L 411.90625 365.125 C 423.89759 360.75565 437.05834 357.91718 444.375 346.09375 L 443.9375 345.84375 C 436.74364 357.46874 423.75524 360.27045 411.71875 364.65625 C 407.79553 365.96375 401.79198 368.99601 396.59375 369.9375 C 393.99464 370.40824 391.60748 370.35311 389.8125 369.34375 C 388.02376 368.3379 386.75883 366.37792 386.375 362.90625 C 386.37366 362.89414 386.37632 362.88715 386.375 362.875 C 391.26547 353.71398 390.57465 343.3858 391.75 333.46875 L 391.25 333.40625 z M 382.03125 336.375 C 381.84372 340.48336 381.73898 344.60967 381.3125 348.6875 L 381.3125 348.71875 L 381.3125 348.75 C 382.12499 355.20293 379.34781 359.01756 375.1875 361.90625 C 371.03448 364.78988 365.48519 366.6797 360.8125 369.03125 C 360.8043 369.03538 360.78945 369.02712 360.78125 369.03125 C 350.35649 373.34629 338.90609 376.46384 328.34375 370.59375 L 328.28125 370.5625 L 328.21875 370.5625 C 323.42504 371.08162 319.87883 369.12882 317.84375 365.96875 C 315.80867 362.80868 315.27952 358.44335 316.59375 354.15625 L 316.125 354 C 314.7719 358.41391 315.31015 362.94665 317.4375 366.25 C 319.55527 369.53847 323.26533 371.57343 328.1875 371.0625 C 338.94115 377.00119 350.54771 373.82923 361 369.5 L 361.03125 369.5 C 365.66124 367.16671 371.22063 365.29341 375.46875 362.34375 C 379.70949 359.39921 382.6315 355.31752 381.8125 348.71875 C 381.81108 348.70728 381.81395 348.69899 381.8125 348.6875 C 382.23893 344.59537 382.34443 340.49903 382.53125 336.40625 L 382.03125 336.375 z M 296.21875 352.53125 C 289.70919 352.62748 284.29011 356.77875 280.3125 362.375 C 276.33489 367.97125 273.79158 375.02203 273.03125 380.9375 L 273.53125 381 C 274.27992 375.17524 276.79745 368.20453 280.71875 362.6875 C 284.63347 357.17973 289.93298 353.13747 296.21875 353.03125 C 296.22775 353.03413 296.24101 353.02835 296.25 353.03125 C 301.13822 354.60721 304.48681 359.40013 305.65625 364.59375 C 306.82602 369.78883 305.80659 375.34599 302.09375 378.4375 C 298.09078 378.75278 295.09392 376.80346 293.34375 373.90625 C 291.58384 370.9929 291.10396 367.10933 292.28125 363.71875 L 291.8125 363.5625 C 290.58357 367.10178 291.06545 371.10901 292.90625 374.15625 C 294.74705 377.20349 297.99921 379.29561 302.21875 378.9375 L 302.28125 378.9375 L 302.34375 378.875 C 306.30687 375.63664 307.33249 369.8626 306.125 364.5 C 304.91751 359.1374 301.47212 354.14427 296.3125 352.53125 L 296.28125 352.53125 L 296.21875 352.53125 z M 448.46875 354.78125 L 447.96875 354.8125 C 448.31009 360.58505 445.11643 364.82862 440.6875 368.125 C 436.25857 371.42138 430.59558 373.74155 426.0625 375.625 L 426.03125 375.65625 C 417.96262 381.2753 408.47585 382.46447 399.125 384.75 C 388.04272 387.58551 376.84548 386.08719 365.84375 383.5625 C 359.66912 381.76904 354.30206 383.47183 349.15625 385.9375 C 344.01044 388.40317 339.0667 391.64132 333.65625 393.0625 C 329.3877 392.65275 324.08774 394.62492 319.25 395.4375 C 316.81422 395.84663 314.51328 395.93668 312.53125 395.34375 C 310.54922 394.75082 308.86511 393.47363 307.65625 391 C 306.23448 387.99511 304.13599 386.14369 301.6875 385.21875 C 299.23901 384.29381 296.44964 384.30739 293.65625 384.90625 C 288.10793 386.09573 282.52243 389.69274 279.21875 393.53125 C 279.19586 393.55785 279.14767 393.56713 279.125 393.59375 C 268.31594 397.99722 259.33875 406.91341 247.78125 408.125 C 236.16923 409.46682 226.75384 402.86303 217.25 397.375 C 210.58365 393.30359 206.45741 383.87037 204.65625 376.46875 L 204.15625 376.59375 C 205.97577 384.07079 210.12105 393.61124 217 397.8125 C 226.4767 403.28485 236.01554 409.9918 247.84375 408.625 C 259.66474 407.38579 268.68363 398.33461 279.40625 394 L 279.46875 393.96875 L 279.5 393.90625 C 282.71034 390.1362 288.33042 386.54358 293.78125 385.375 C 296.50666 384.79071 299.19864 384.80633 301.53125 385.6875 C 303.86386 386.56867 305.84443 388.31413 307.21875 391.21875 C 308.4781 393.79569 310.27442 395.21536 312.375 395.84375 C 314.47558 396.47214 316.87274 396.3213 319.34375 395.90625 C 324.28577 395.07615 329.60229 393.13684 333.6875 393.5625 L 333.75 393.5625 L 333.78125 393.53125 C 339.29947 392.08176 344.27104 388.82061 349.375 386.375 C 354.47896 383.92939 359.69849 382.31388 365.71875 384.0625 C 376.75086 386.59417 388.04861 388.08473 399.25 385.21875 C 408.54143 382.94775 418.07149 381.76328 426.25 376.09375 C 426.26963 376.08014 426.29288 376.07616 426.3125 376.0625 C 430.83399 374.18418 436.51709 371.86781 441 368.53125 C 445.50233 365.18023 448.82178 360.75154 448.46875 354.78125 z "
       id="path3248"
       inkscape:export-xdpi="90"
       inkscape:export-ydpi="90" />
    <path
       style="fill:#ffffff;stroke:#000000;stroke-width:0.15551573;stroke-linecap:round;stroke-linejoin:round;stroke-miterlimit:4;stroke-dasharray:none;stroke-dashoffset:0"
       d="M 230.34693,416.23099 C 225.90085,415.76606 223.20964,415.13644 220.87068,414.01398 C 213.85002,410.6448 209.44544,404.36709 203.28631,388.95154 C 202.06339,385.89073 200.45096,382.17511 199.70313,380.69462 C 193.59539,368.60302 196.68156,352.99565 207.22166,342.67189 C 211.2629,338.71361 213.46852,335.33652 215.0706,330.65421 C 215.44079,329.57225 216.50506,325.77471 217.43562,322.21524 C 220.91692,308.89908 222.84,305.83792 230.25649,301.80711 C 231.7603,300.9898 234.81023,299.13383 237.03411,297.68274 C 247.53196,290.83283 251.01666,288.84576 255.49196,287.15756 C 259.68712,285.57503 264.26502,285.13883 269.41066,285.83133 C 273.68345,286.40635 277.8412,285.10659 282.02352,281.88837 C 283.83086,280.49765 285.20335,278.94034 287.9444,275.17016 C 289.66826,272.79906 291.99266,270.92473 294.75061,269.68181 C 297.49034,268.4471 299.46604,268.08238 303.41475,268.08238 C 308.75393,268.08238 313.70023,269.54412 318.89769,272.65793 C 320.12944,273.39587 321.35274,274.08234 321.61614,274.18342 C 321.89499,274.29043 323.2983,273.652 324.97518,272.65528 C 337.62775,265.13468 351.53162,265.47577 360.60261,273.5293 C 363.14508,275.78659 363.86237,275.98353 369.37799,275.93877 C 373.68224,275.90383 377.27142,275.13916 386.38395,272.31566 C 396.59604,269.15146 397.92403,268.87624 402.96939,268.87846 C 405.2788,268.87947 407.86814,268.91688 408.72347,268.96159 C 409.57881,269.00629 411.44369,268.92572 412.86765,268.78254 C 425.0121,267.56138 437.93595,275.2734 444.01052,287.36633 C 445.51874,290.3688 446.01972,291.94331 446.97963,296.69727 C 447.41137,298.83561 448.874,304.85407 450.22987,310.07162 C 453.94928,324.38404 454.63756,327.60482 455.38121,334.17656 C 457.18006,350.07306 453.11164,365.3485 444.42662,375.30761 C 442.09223,377.9844 438.21569,381.01118 435.09549,382.59328 C 433.65625,383.32303 431.76842,384.5264 430.9003,385.26742 C 425.03536,390.27362 417.94309,393.54526 410.14369,394.84233 C 407.6585,395.25562 405.9102,395.34005 402.67894,395.20278 C 396.74068,394.95051 393.15026,393.9724 387.19652,390.98501 C 382.58989,388.67357 380.48827,388.11072 375.75414,387.9206 C 371.16501,387.73631 367.8768,388.18497 362.64323,389.70954 C 359.37295,390.66219 352.07235,393.32594 348.53888,394.85574 L 346.51718,395.73104 L 335.78659,395.74591 C 323.95129,395.76232 323.27889,395.83367 314.63645,397.99015 C 303.35198,400.80587 303.03297,400.80595 298.85601,397.9938 C 290.11649,392.10989 277.86816,396.73774 272.24996,408.04653 C 271.52758,409.50061 270.93653,410.71029 270.93653,410.73472 C 270.93653,410.75915 267.99729,411.49015 264.40487,412.35917 C 252.15451,415.32256 243.99023,416.48204 235.99003,416.39461 C 233.48506,416.36723 230.94566,416.29361 230.34693,416.23099 L 230.34693,416.23099 z M 248.5847,408.64301 C 253.83826,407.91231 258.71554,405.8274 267.76146,400.44545 C 270.80506,398.63463 274.72401,396.43608 276.47026,395.55978 C 278.73131,394.42513 280.28076,393.37419 281.85299,391.90884 C 286.10774,387.94335 292.0782,385.29748 296.90766,385.23722 C 301.63268,385.17826 304.40546,386.77079 306.90586,390.97958 C 310.21461,396.54903 313.5332,397.37256 323.65637,395.13633 C 326.47898,394.5128 330.11805,393.89229 331.74319,393.75739 C 335.37355,393.45606 336.9849,392.86036 344.70975,388.96381 C 351.96357,385.30487 353.66776,384.59458 356.69099,383.97011 C 360.14434,383.2568 361.4184,383.33614 368.15585,384.68406 C 377.29533,386.51256 379.17304,386.72582 386.17369,386.73053 C 391.6127,386.73419 393.07416,386.62911 396.11726,386.01556 C 402.3969,384.74948 412.66934,382.25676 415.8772,381.2206 C 418.68115,380.31491 420.12194,379.65434 426.45227,376.37219 C 427.47867,375.84003 430.35723,374.44278 432.84906,373.2672 C 442.26383,368.82562 446.67255,364.65608 448.21476,358.73512 C 448.84121,356.3302 448.84529,354.54912 448.22447,354.54912 C 447.87331,354.54912 447.75792,354.92563 447.75792,356.07152 C 447.75792,360.85427 444.47729,365.59628 438.5958,369.31495 C 436.40928,370.6974 430.80612,373.53784 428.43475,374.46593 C 427.51546,374.82572 425.71263,375.73362 424.42848,376.48348 C 418.82531,379.75538 414.8012,381.06925 400.63665,384.25147 C 393.99692,385.74316 391.89534,385.99312 386.01818,385.99017 C 380.28928,385.98731 375.92327,385.47383 368.36464,383.91403 C 358.6849,381.91651 356.41214,382.29227 345.42857,387.70607 C 336.84129,391.93872 334.90059,392.67451 331.66729,392.92338 C 330.34255,393.02536 326.9834,393.61196 324.20254,394.22696 C 318.21067,395.55209 315.32757,395.83312 313.131,395.30617 C 310.77818,394.74174 309.40627,393.57124 307.56994,390.56152 C 304.96685,386.29512 302.4628,384.70515 297.97375,384.46837 C 292.41042,384.17493 284.68944,387.57573 280.11196,392.33584 C 279.51323,392.95848 277.89202,393.99875 276.50929,394.64758 C 275.12655,395.29642 270.97475,397.59769 267.28307,399.76152 C 259.83119,404.12936 256.36211,405.82929 252.43016,407.03983 C 250.06761,407.76719 249.27359,407.85445 244.96541,407.86016 C 239.66415,407.8672 237.39081,407.43687 232.86076,405.56883 C 227.2331,403.24816 216.66279,397.11398 214.38492,394.84688 C 210.85367,391.33234 207.54219,385.501 205.72077,379.58977 C 204.65367,376.12661 204.63567,376.08905 204.23926,376.49758 C 203.846,376.90284 206.01777,383.35253 207.63862,386.59303 C 210.86784,393.04904 213.65501,396.005 220.09034,399.79879 C 233.44676,407.67275 240.28981,409.79673 248.58469,408.64302 L 248.5847,408.64301 z M 249.24028,397.99643 C 251.18517,396.56874 253.21249,394.39465 254.8054,392.02841 C 258.85714,386.00962 260.92497,380.39587 264.74012,365.0576 C 265.83426,360.65877 267.13448,355.89083 267.62949,354.46219 C 270.31474,346.7124 273.60879,342.86324 278.90051,341.29177 C 282.05484,340.35503 301.12119,339.91617 310.28201,340.56943 C 312.76249,340.74632 316.33158,341.10047 318.21332,341.35644 C 324.25167,342.17782 325.82739,342.22254 329.1184,341.6659 C 336.63804,340.39406 342.99438,337.32302 349.71729,331.71365 C 350.96416,330.67331 352.71371,329.219 353.60519,328.48186 C 355.75686,326.7027 360.8115,324.29943 364.09046,323.49657 C 368.37049,322.44858 370.8335,322.20683 381.81925,321.75643 C 391.52524,321.3585 392.41088,321.27416 394.75144,320.52475 C 402.96802,317.89397 409.00851,310.07948 412.44847,297.63037 C 412.85027,296.17629 413.53755,294.00685 413.97576,292.80938 C 415.43377,288.82522 414.85211,284.48482 412.34716,280.65672 C 410.88589,278.42358 409.89597,277.47449 407.57427,276.0807 C 403.88911,273.86838 400.17525,273.7878 395.92349,275.82794 C 390.72199,278.32379 386.6319,281.49514 383.93906,285.12035 C 382.68303,286.81126 380.57512,290.90923 380.57512,291.66015 C 380.57512,292.53249 381.30195,291.79562 381.87136,290.34601 C 383.93315,285.09712 388.69271,280.40595 395.50464,276.90864 L 398.45943,275.39162 L 401.56975,275.39162 C 404.5193,275.39162 404.78122,275.44646 406.63707,276.45276 C 407.73095,277.04589 409.30853,278.28697 410.21394,279.26666 C 414.13564,283.51009 415.07512,288.788 412.79522,293.76796 C 412.38064,294.67352 411.87816,296.20098 411.67858,297.16232 C 410.7019,301.86699 407.93462,308.03926 405.15696,311.70846 C 401.93744,315.96137 397.55714,319.07131 393.25422,320.15925 C 392.09826,320.45152 388.15696,320.73197 382.05709,320.956 C 367.96625,321.47351 363.39383,322.23074 357.71431,324.9873 C 355.61229,326.00752 353.80572,327.18712 352.1415,328.62606 C 345.29594,334.54498 340.40091,337.61664 334.8885,339.45244 C 329.34751,341.29776 325.63247,341.54301 317.99194,340.56791 C 309.92484,339.53837 301.44701,339.23861 290.94041,339.61143 C 285.34127,339.81012 280.7028,340.12341 279.42947,340.38891 C 276.51915,340.99573 274.52053,342.1615 272.23277,344.58665 C 268.87785,348.14303 266.88853,352.81616 264.54926,362.63594 C 260.93215,377.81993 258.18729,385.54889 254.44222,391.09532 C 252.71009,393.66061 250.32375,396.21772 248.43206,397.53558 L 247.07773,398.47909 L 241.43385,398.32433 C 235.07646,398.15002 231.88798,397.60648 228.87536,396.18349 C 226.38043,395.00503 225.30449,393.64361 225.14366,391.46167 C 224.96882,389.08973 225.68213,387.93306 228.14931,386.58791 C 233.54489,383.64613 239.19044,376.35283 242.47778,368.07742 C 243.55111,365.37547 243.53919,365.43522 243.00514,365.43522 C 242.78234,365.43522 242.34067,366.17004 242.02367,367.06814 C 241.09224,369.70696 238.30279,375.06095 236.63556,377.40994 C 233.58384,381.70954 230.97921,384.12886 227.0811,386.28464 C 226.05469,386.85228 225.18406,387.33463 225.14636,387.35654 C 225.10865,387.37845 224.85693,388.2585 224.58699,389.3122 C 224.19754,390.83233 224.16698,391.49097 224.439,392.50118 C 225.65916,397.03245 232.48488,399.43696 243.46519,399.20354 L 247.71905,399.11311 L 249.24028,397.99643 z M 246.80492,379.27444 C 255.98328,366.79373 257.84236,362.89122 257.86253,356.06265 C 257.87282,352.57772 257.84451,352.42014 257.09563,351.79319 C 254.63555,349.73361 249.33248,349.16311 245.12092,350.50494 C 241.26246,351.73428 238.51426,353.41213 235.47882,356.39173 C 233.16171,358.66622 232.06412,360.59056 231.45528,363.44595 C 230.01818,370.18584 226.48434,376.76545 222.97791,379.22987 C 222.11628,379.83545 221.16781,380.1902 220.14854,380.28814 C 217.72288,380.52122 216.92899,380.02159 211.15093,374.62557 C 208.32344,371.98503 207.27473,369.69269 207.09083,365.75075 C 206.82396,360.03014 209.09111,354.6889 214.16054,349.09498 C 217.85921,345.01365 220.79756,340.07258 227.33682,326.93804 C 229.82994,321.93044 232.15929,317.42671 232.51317,316.92974 C 234.14035,314.64457 240.40811,311.05429 244.96541,309.79689 C 246.24841,309.44289 248.66279,308.98166 250.3307,308.77193 C 255.24291,308.15425 257.82582,308.62773 267.56289,311.93085 C 276.33578,314.90688 279.32762,315.67019 282.21962,315.67019 C 284.4338,315.67019 287.49401,314.84101 287.02196,314.36896 C 286.80123,314.14822 286.37606,314.14878 285.6614,314.37075 C 281.98204,315.51355 279.43779,315.08812 269.18211,311.6152 C 259.3603,308.28919 257.70932,307.90562 253.20774,307.90389 C 247.37948,307.90165 241.65713,309.47915 236.93705,312.38927 C 232.21208,315.3024 232.5627,314.81156 226.1415,327.50224 C 220.12004,339.40288 216.65568,345.17229 213.45571,348.62863 C 207.75827,354.78256 205.04104,362.53499 206.55043,368.3299 C 207.54284,372.14003 209.13225,374.23259 214.42287,378.69449 C 215.83783,379.88781 217.1922,380.7435 218.04307,380.98173 C 223.80928,382.59616 229.35662,375.49278 232.52938,362.43198 C 232.99728,360.50581 235.1599,357.49698 237.41103,355.64013 C 243.13548,350.91834 250.50743,349.25775 255.16662,351.64054 C 256.87685,352.51519 256.94265,352.59569 257.16983,354.09131 C 257.46198,356.01462 257.22512,358.38351 256.44636,361.32696 C 255.39637,365.29553 252.91964,369.62546 247.57272,376.84023 C 243.90935,381.78335 242.47716,383.83749 242.47716,384.14867 C 242.47716,384.94382 243.39996,383.90448 246.80492,379.27444 L 246.80492,379.27444 z M 274.21573,378.31996 C 276.27098,368.12712 282.44222,358.62118 289.28739,355.10415 C 294.64496,352.35145 297.79528,352.8075 301.51166,356.87381 C 306.57065,362.40916 307.39464,372.0565 303.22453,376.92833 L 302.08164,378.26356 L 300.12909,378.10683 C 296.83948,377.84278 294.54129,376.09046 292.8923,372.58895 C 292.16825,371.0515 292.08667,370.50819 292.08667,367.22357 C 292.08667,365.21349 291.98437,363.5689 291.85933,363.56895 C 291.43834,363.56912 291.15358,365.26335 291.15358,367.76796 C 291.15358,373.992 295.33289,378.84567 300.76899,378.9349 L 302.60863,378.96509 L 303.94274,377.3381 C 307.35574,373.17586 307.568,365.68165 304.44178,359.71869 C 302.87453,356.7293 300.7117,354.46547 298.27856,353.26764 C 296.29921,352.29321 296.25166,352.2862 294.02623,352.64116 C 284.89929,354.09693 276.18563,364.88121 273.43126,378.13009 C 272.85984,380.87871 272.85334,381.0736 273.33844,380.9119 C 273.54755,380.84219 273.94233,379.67583 274.21572,378.31997 L 274.21573,378.31996 z M 346.30714,373.99677 C 352.04956,373.13428 357.54873,371.26796 366.87599,367.01609 C 374.82846,363.39093 378.64087,360.62381 380.49908,357.1282 C 381.55159,355.14828 382.22436,352.10491 382.09633,349.903 C 382.00826,348.38837 382.34599,340.95337 382.63762,337.9867 C 382.77726,336.5663 382.7225,336.19827 382.3716,336.19827 C 382.01231,336.19827 381.85966,337.60737 381.55449,343.74078 C 381.02963,354.28945 381.03038,354.28277 380.13181,356.18221 C 378.37016,359.90601 374.84105,362.44615 365.46942,366.73572 C 355.01355,371.52158 347.88264,373.52204 341.27888,373.52204 C 337.00766,373.52204 334.07851,372.96205 330.65232,371.49047 C 328.76893,370.68155 327.69953,370.41173 326.37676,370.41173 C 319.95372,370.41173 315.34848,364.38462 316.20714,357.10227 C 316.32396,356.11156 316.51764,354.99185 316.63756,354.61402 C 316.79407,354.12091 316.72826,353.92706 316.40436,353.92706 C 315.82146,353.92706 315.59983,354.75875 315.36831,357.81495 C 315.04766,362.04775 316.29093,365.60466 319.02035,368.26319 C 320.80958,370.00596 323.01131,370.92813 326.05105,371.20793 C 327.28668,371.32167 329.13639,371.79602 330.49906,372.34861 C 335.40566,374.33833 340.4981,374.86928 346.30713,373.99678 L 346.30714,373.99677 z M 398.78689,369.99015 C 400.31746,369.58723 403.10935,368.66243 404.99109,367.93505 C 406.87284,367.20768 410.72185,365.78632 413.54446,364.77649 C 416.36707,363.76666 420.28607,362.36255 422.25334,361.65625 C 431.97354,358.16644 438.21924,354.26988 442.3507,349.11789 C 444.20492,346.80565 444.71084,345.84024 444.06831,345.84024 C 443.92076,345.84024 443.08147,346.80658 442.20321,347.98766 C 437.57615,354.21013 431.81815,357.52151 416.18823,362.94872 C 413.10902,364.01793 409.19002,365.44892 407.47935,366.12872 C 399.69817,369.22084 395.73262,370.27059 392.92429,369.98167 C 389.51212,369.63064 387.58667,367.87584 386.80976,364.4091 C 386.52683,363.14663 386.5887,362.80369 387.43685,360.93314 C 389.4457,356.50271 390.38099,351.51346 391.33074,340.1614 C 391.82179,334.29195 391.81141,332.94513 391.27916,333.47737 C 391.17902,333.57751 390.76311,337.43649 390.35491,342.0529 C 389.40622,352.78164 388.59198,356.85172 386.59701,360.83717 C 385.73066,362.56794 385.6838,363.56587 386.36926,365.68826 C 387.01633,367.69179 388.42847,369.40228 390.03958,370.13404 C 391.8621,370.96181 395.31152,370.90507 398.78689,369.99016 L 398.78689,369.99015 z M 218.60497,364.20494 C 219.75938,362.33794 222.91664,357.61707 225.6211,353.71411 C 228.32556,349.81116 231.70113,344.75769 233.12237,342.4842 C 237.17672,335.99866 241.70134,331.64797 247.91339,328.26178 C 253.12596,325.42041 259.52773,323.85009 264.56039,324.17838 C 266.57324,324.30968 268.2062,324.69263 271.40308,325.78307 C 286.24367,330.84513 298.5747,332.29736 308.10257,330.10517 C 314.92031,328.53653 319.03506,326.81285 330.41042,320.76037 C 335.40816,318.10122 341.07671,315.30144 343.0072,314.53862 C 344.93769,313.7758 347.51156,312.67214 348.7269,312.08603 C 349.94226,311.49992 351.76179,310.79196 352.77031,310.51278 C 355.55515,309.74187 362.39305,309.60153 368.32903,310.19347 C 375.51289,310.90985 380.40651,310.86442 382.55276,310.0614 C 386.43112,308.61031 391.03786,304.65876 394.15277,300.11115 C 396.036,297.36174 398.54584,292.46304 399.64674,289.38803 C 400.07545,288.19056 400.52353,286.96587 400.64247,286.66651 C 400.78962,286.29616 400.71187,286.1222 400.39923,286.1222 C 400.10651,286.1222 399.63155,286.99704 399.09056,288.5327 C 396.83717,294.92924 393.65771,300.15627 389.48288,304.32769 C 387.14918,306.6595 386.14319,307.41403 383.86402,308.54207 L 381.0878,309.91611 L 376.86581,309.88107 C 374.54372,309.8618 370.19445,309.60261 367.20077,309.30509 C 358.88722,308.47886 352.99549,309.06023 348.9575,311.10529 C 348.12852,311.52513 345.7707,312.53166 343.7179,313.34203 C 339.59734,314.96868 335.717,316.88709 327.07771,321.56881 C 315.89017,327.63146 309.0476,329.8307 300.25078,330.19109 C 291.70508,330.5412 282.58723,328.85193 270.53903,324.68636 C 267.18402,323.5264 266.72488,323.44598 263.45752,323.44598 C 256.01734,323.44598 249.34826,325.70595 242.95505,330.39371 C 238.382,333.74685 235.45546,336.98182 232.43354,342.02407 C 231.48719,343.60311 228.12725,348.64183 224.967,353.2212 C 217.25983,364.38935 215.3054,367.64238 216.32459,367.60596 C 216.42439,367.60239 217.45055,366.07194 218.60497,364.20494 L 218.60497,364.20494 z M 350.77298,355.60158 C 352.28397,352.45329 355.07331,348.95737 361.16714,342.57441 C 363.78024,339.83733 366.62692,336.68814 367.49311,335.5762 C 370.75038,331.39481 371.64345,330.52573 373.646,329.58862 C 376.53572,328.23636 379.07498,328.15795 386.16866,329.20192 C 395.6994,330.60456 398.72644,330.06924 402.77338,326.26542 C 403.99313,325.11896 407.0461,322.47404 409.55777,320.38784 C 418.32523,313.10554 420.21531,309.97366 420.87606,301.63308 C 421.14246,298.27051 420.78201,293.19568 420.22327,292.4426 C 419.83227,291.91558 419.76686,291.91199 419.28075,292.39074 C 418.7659,292.89779 418.92103,293.76087 419.46643,293.42379 C 420.01584,293.08425 420.16144,294.98578 419.9881,300.23683 C 419.79573,306.06422 419.42993,307.82734 417.82782,310.64946 C 416.46774,313.04524 413.71809,315.86442 408.56796,320.14347 C 406.08748,322.20441 403.14025,324.75017 402.01855,325.80072 C 398.31817,329.2664 395.09531,329.80653 386.32921,328.43015 C 375.88854,326.79084 372.40152,327.79147 367.92986,333.71001 C 366.70201,335.33515 363.29064,339.18417 360.34903,342.26338 C 357.40742,345.34259 354.15499,348.98166 353.12141,350.3502 C 350.87584,353.32352 348.35794,358.31018 348.69003,359.12645 C 348.88912,359.6158 348.95374,359.58954 349.23856,358.90356 C 349.41613,358.4759 350.10661,356.99 350.77298,355.60158 L 350.77298,355.60158 z M 418.14529,352.81354 C 423.10504,351.79681 427.85863,349.28819 430.82658,346.12124 C 432.73995,344.07961 435.42391,338.78855 437.02043,333.91097 C 439.00164,327.85814 440.29317,319.77047 440.29317,313.41657 C 440.29317,309.90159 439.24496,306.59256 436.09489,300.16337 C 434.43535,296.77628 423.51731,278.01564 422.69348,277.13553 C 422.63053,277.06828 422.49694,277.22714 422.39663,277.48857 C 422.28578,277.77745 423.92125,280.77534 426.56638,285.13192 C 434.531,298.24969 436.7912,302.61112 438.74143,308.62581 C 439.69661,311.57164 439.72696,311.82383 439.52784,315.15747 C 438.8176,327.04812 435.93667,337.28105 431.34224,344.23239 C 429.30769,347.31064 424.20261,350.4956 419.28865,351.75237 C 411.84001,353.65741 406.79742,351.11229 406.1357,345.11378 C 405.80878,342.15019 406.25423,336.65262 407.02192,334.17656 C 409.12283,327.40046 413.69504,322.17096 419.11487,320.34515 C 421.49088,319.54473 422.9378,319.83164 424.74103,321.46078 C 426.46769,323.0207 427.08223,324.84078 427.03909,328.26696 C 426.94441,335.78877 422.09204,342.69904 416.88805,342.7231 C 415.23737,342.73073 414.91291,343.19324 416.33856,343.50637 C 418.05937,343.88432 420.48419,342.89521 422.56926,340.96483 C 424.06849,339.5768 424.74657,338.61901 425.81362,336.38227 C 427.47786,332.8937 427.85191,331.36084 427.85191,328.02912 C 427.85191,324.66862 427.21787,322.79557 425.49821,321.0759 C 423.12227,318.69998 420.69109,318.54629 416.68337,320.51869 C 409.37616,324.11495 404.75334,333.35719 405.21055,343.45591 C 405.47012,349.18902 407.38777,351.8532 411.9893,352.87354 C 414.33634,353.39397 415.36268,353.38397 418.14529,352.81354 L 418.14529,352.81354 z M 317.74677,302.42556 C 321.53312,301.16435 325.7433,298.93437 332.67628,294.51795 C 336.01209,292.39299 339.93109,290.03759 341.38516,289.28375 L 344.02893,287.91311 L 346.98373,288.07951 C 349.35852,288.21325 350.97643,288.56539 355.22606,289.87348 C 363.27796,292.35195 365.09937,292.73931 367.97835,292.58551 C 370.97213,292.42556 372.68224,291.72982 374.76286,289.82525 C 376.13102,288.57285 376.28979,288.27754 376.60799,286.39329 C 376.90749,284.61971 376.88049,284.13355 376.41472,282.91396 C 375.63817,280.88057 373.9035,279.44863 371.18,278.59276 C 369.1526,277.95565 368.33285,277.88348 363.46839,277.91384 C 358.58417,277.94433 352.2366,278.58843 351.71894,279.10609 C 351.24076,279.58429 352.25134,279.59417 355.9097,279.14711 C 360.4701,278.58981 366.93536,278.50637 369.4133,278.97283 C 371.72402,279.40781 374.20147,280.67958 375.04681,281.86472 C 375.63549,282.69004 375.75414,283.25818 375.75414,285.25188 C 375.75414,287.62691 375.74351,287.65827 374.51001,288.9216 C 373.82574,289.62241 372.56606,290.53104 371.71073,290.94076 C 368.35863,292.54648 365.83876,292.30641 356.86192,289.52613 C 350.39865,287.52435 347.10871,286.89916 344.70142,287.21528 C 342.84839,287.45863 340.01826,288.91414 334.07592,292.67991 C 324.10603,298.998 320.86916,300.68202 315.86337,302.15519 C 313.74696,302.77804 313.20603,302.81865 310.42032,302.5638 C 294.63203,301.11942 285.54425,299.38218 272.25842,295.26872 C 271.91715,295.16306 271.71411,295.2643 271.71411,295.54013 C 271.71411,296.22598 281.4158,298.94602 289.59842,300.55431 C 297.5777,302.12263 309.51674,303.57033 313.0813,303.40178 C 314.22873,303.34753 316.24628,302.92537 317.74677,302.42556 L 317.74677,302.42556 z M 291.40874,291.56673 C 294.32361,290.80751 295.67503,289.94106 298.47328,287.03742 C 303.56403,281.75493 307.41743,281.09209 320.39054,283.26737 C 327.88981,284.52482 328.63287,284.6005 328.63287,284.10674 C 328.63287,283.85032 327.98773,283.62928 326.84444,283.494 C 325.8608,283.3776 322.67662,282.8832 319.76847,282.39533 C 312.55282,281.18483 309.76392,281.00616 306.69018,281.55747 C 302.72459,282.26874 299.43468,284.25308 297.04374,287.37582 C 294.79447,290.31351 288.59218,292.05117 285.28621,290.66985 C 284.06807,290.16087 282.90852,288.78929 282.91808,287.86869 C 282.9437,285.40085 287.51276,280.32879 291.35317,278.50499 C 292.62175,277.90254 294.63541,277.20295 295.82797,276.95033 C 298.6342,276.3559 304.47158,276.35581 310.59305,276.95011 C 313.24459,277.20754 318.14333,277.50525 321.47915,277.61168 C 328.12772,277.82383 329.61852,277.66667 338.43036,275.82478 C 341.8944,275.1007 344.23719,274.80916 347.52803,274.69263 C 351.22255,274.56181 351.96023,274.4568 351.96023,274.06173 C 351.96023,273.19354 344.7166,273.77088 337.5765,275.20817 C 326.90095,277.35713 324.3624,277.42571 308.57134,275.99175 C 296.83244,274.92577 291.19631,276.29002 286.00672,281.45363 C 283.40606,284.04128 282.28918,285.98015 282.28918,287.90721 C 282.28918,291.14957 286.50907,292.84294 291.40875,291.56673 L 291.40874,291.56673 z"
       id="path3555" />
  </g>
</svg>
